<svg xmlns="http://www.w3.org/2000/svg" viewBox="0 0 434 284.06">
    <defs>
        <style>.cls-1{font-size:13px;font-family:GlacialIndifference-Bold, Glacial Indifference;font-weight:700;}.cls-1,.cls-7{fill:#516092;}.cls-2{letter-spacing:-0.07em;}.cls-3{letter-spacing:-0.05em;}.cls-4{fill:#ed7445;}.cls-5{fill:#eceff1;}.cls-6{fill:#d4e0ff;opacity:0.5;}.cls-8{fill:#bcccfd;}.cls-9{fill:#fff;}.cls-10{fill:#e3ebff;}</style>
    </defs>
    <g id="Layer_2" data-name="Layer 2">
        <g id="OBJECTS">
            <text class="cls-1" transform="translate(129.62 279.9)">
                <tspan class="cls-2">P</tspan>
                <tspan class="cls-3" x="6.06" y="0">A</tspan>
                <tspan x="14.39" y="0">GE UNDER CONSTRUCTION</tspan>
            </text>
            <path class="cls-4" d="M332.49,281.34H309.71a1.36,1.36,0,1,0,0,2.72h22.78a1.36,1.36,0,0,0,0-2.72Z"/>
            <path class="cls-4" d="M323,262a.74.74,0,0,0-.7-.49h-2.61a.75.75,0,0,0-.7.5l-7.35,21h19Z"/>
            <polygon class="cls-5" points="317.58 265.88 316.42 269.2 325.58 269.2 324.37 265.88 317.58 265.88"/>
            <polygon class="cls-5" points="314.62 274.34 313.46 277.66 328.66 277.66 327.45 274.34 314.62 274.34"/>
            <path class="cls-4" d="M124.29,281.34H101.51a1.36,1.36,0,1,0,0,2.72h22.78a1.36,1.36,0,0,0,0-2.72Z"/>
            <path class="cls-4" d="M114.75,262a.74.74,0,0,0-.7-.49h-2.61a.75.75,0,0,0-.7.5l-7.35,21h19Z"/>
            <polygon class="cls-5" points="109.38 265.88 108.22 269.2 117.38 269.2 116.17 265.88 109.38 265.88"/>
            <polygon class="cls-5" points="106.42 274.34 105.26 277.66 120.46 277.66 119.25 274.34 106.42 274.34"/>
            <polygon class="cls-6" points="125.5 129.93 70.91 129.93 70.91 224.66 125.5 224.66 140.43 224.66 204.62 224.66 204.62 59.47 125.5 59.47 125.5 129.93"/>
            <polygon class="cls-6" points="294.62 135.67 294.62 0 215.5 0 215.5 224.66 291.5 224.66 294.62 224.66 352.7 224.66 352.7 135.67 294.62 135.67"/>
            <rect class="cls-7" y="221.66" width="434" height="2"/>
            <rect class="cls-8" x="95.09" y="82.66" width="190.72" height="149.89"/>
            <rect class="cls-9" x="95.09" y="99.64" width="190.72" height="132.91"/>
            <circle class="cls-9" cx="101.92" cy="90.83" r="2.78"/>
            <path class="cls-9" d="M116.54,90.83a2.79,2.79,0,1,1-2.78-2.78A2.78,2.78,0,0,1,116.54,90.83Z"/>
            <path class="cls-9" d="M128.37,90.83a2.78,2.78,0,1,1-2.78-2.78A2.78,2.78,0,0,1,128.37,90.83Z"/>
            <path class="cls-9" d="M220.2,95.83H141.7A4.75,4.75,0,0,1,137,91.08h0a4.75,4.75,0,0,1,4.75-4.75h78.5A4.75,4.75,0,0,1,225,91.08h0A4.75,4.75,0,0,1,220.2,95.83Z"/>
            <path class="cls-9" d="M274.19,95.83H237a4.75,4.75,0,0,1-4.75-4.75h0A4.75,4.75,0,0,1,237,86.33h37.16A4.76,4.76,0,0,1,279,91.08h0A4.75,4.75,0,0,1,274.19,95.83Z"/>
            <rect class="cls-8" x="110.31" y="158.86" width="67.85" height="38.29"/>
            <rect class="cls-8" x="110.31" y="111.86" width="67.85" height="38.29"/>
            <rect class="cls-8" x="110.9" y="206.83" width="66.67" height="3"/>
            <rect class="cls-8" x="110.9" y="216.83" width="66.67" height="3"/>
            <rect class="cls-8" x="201.62" y="206.83" width="66.67" height="3"/>
            <rect class="cls-8" x="201.62" y="216.83" width="66.67" height="3"/>
            <path class="cls-7" d="M286.81,233.56H94.09V81.66H286.81Zm-190.72-2H284.81V83.66H96.09Z"/>
            <path class="cls-7" d="M332.51,211H312.94V46.33h19.57Zm-17.57-2h15.57V48.33H314.94Z"/>
            <rect class="cls-8" x="310.26" y="201.47" width="24.92" height="17.86"/>
            <path class="cls-7" d="M331.61,192H314.28a1,1,0,0,1-.73-1.68l16.66-18,1.47,1.36L316.57,190h15Z"/>
            <path class="cls-7" d="M331.61,174H314.28a1,1,0,0,1-.92-.6,1,1,0,0,1,.19-1.08l16.66-18,1.47,1.36L316.57,172h15Z"/>
            <path class="cls-7" d="M331.61,155.93H314.28a1,1,0,0,1-.92-.6,1,1,0,0,1,.19-1.08l16.66-18,1.47,1.36-15.11,16.32h15Z"/>
            <path class="cls-7" d="M331.61,137.9H314.28a1,1,0,0,1-.73-1.68l16.66-18,1.47,1.35L316.57,135.9h15Z"/>
            <path class="cls-7" d="M331.61,119.86H314.28a1,1,0,0,1-.92-.6,1,1,0,0,1,.19-1.08l16.66-18,1.47,1.36-15.11,16.32h15Z"/>
            <path class="cls-7" d="M331.61,101.83H314.28a1,1,0,0,1-.73-1.68l16.66-18,1.47,1.36L316.57,99.83h15Z"/>
            <path class="cls-7" d="M331.61,83.79H314.28a1,1,0,0,1-.92-.6,1,1,0,0,1,.19-1.08l16.66-18,1.47,1.36L316.57,81.79h15Z"/>
            <path class="cls-7" d="M331.61,65.76H314.28a1,1,0,0,1-.92-.6,1,1,0,0,1,.19-1.08l16.66-18,1.47,1.36L316.57,63.76h15Z"/>
            <rect class="cls-4" x="300.76" y="39.38" width="31.72" height="26.74"/>
            <rect class="cls-4" x="348.42" y="39.38" width="31.72" height="15.36"/>
            <path class="cls-7" d="M379.61,41.33H223a1,1,0,0,1,0-2H379.61a1,1,0,0,1,0,2Z"/>
            <rect class="cls-7" x="230.23" y="45" width="1" height="65"/>
            <rect class="cls-7" x="301.76" y="216.14" width="41.92" height="7.86"/>
            <path class="cls-7" d="M316.73,41.07a.49.49,0,0,1-.35-.15L308,32.57H231.44l-7.86,7.85a.49.49,0,0,1-.7-.7L231,31.57h77.42l8.64,8.65a.48.48,0,0,1,0,.7A.47.47,0,0,1,316.73,41.07Z"/>
            <path class="cls-7" d="M380.28,41.07a.5.5,0,0,1-.44-.27l-8.36-16H351.2L343.34,40.3a.49.49,0,0,1-.67.21.5.5,0,0,1-.22-.67l8.14-16h21.49l8.64,16.51a.49.49,0,0,1-.21.67A.46.46,0,0,1,380.28,41.07Z"/>
            <path class="cls-8" d="M234.39,45a3.67,3.67,0,1,1-3.66-3.67A3.66,3.66,0,0,1,234.39,45Z"/>
            <rect class="cls-8" x="187.93" y="112.46" width="84.09" height="43.33" transform="translate(-11.37 21.73) rotate(-5.28)"/>
            <path class="cls-7" d="M252.4,32.56a.49.49,0,0,1-.47-.35.5.5,0,0,1,.33-.63L326.29,9a.5.5,0,0,1,.34,0l35.09,14.81a.5.5,0,1,1-.39.92L326.41,10,252.55,32.54Z"/>
            <path class="cls-7" d="M314.79,41.14a1,1,0,0,1-.35-.07,1,1,0,0,1-.58-1.29L325.51,9.11a1,1,0,0,1,1.92.15l6,29.92a1,1,0,1,1-2,.39l-5.34-26.51L315.73,40.49A1,1,0,0,1,314.79,41.14Z"/>
            <path class="cls-8" d="M328.46,9.46a2,2,0,1,1-2-2A2,2,0,0,1,328.46,9.46Z"/>
            <path class="cls-7" d="M241.86,41.16a.45.45,0,0,1-.31-.11l-9.82-7.93v7.42a.5.5,0,0,1-1,0V32.07a.49.49,0,0,1,.29-.45.47.47,0,0,1,.52.06l10.64,8.6a.5.5,0,0,1-.32.88Z"/>
            <path class="cls-7" d="M251.36,41.16a.45.45,0,0,1-.31-.11l-9.82-7.93v7.42a.51.51,0,0,1-.5.5.5.5,0,0,1-.5-.5V32.07a.5.5,0,0,1,.28-.45.49.49,0,0,1,.53.06l10.63,8.6a.49.49,0,0,1-.31.88Z"/>
            <path class="cls-7" d="M260.86,41.16a.46.46,0,0,1-.32-.11l-9.82-7.93v7.42a.5.5,0,0,1-1,0V32.07a.51.51,0,0,1,.82-.39l10.63,8.6a.49.49,0,0,1,.07.7A.48.48,0,0,1,260.86,41.16Z"/>
            <path class="cls-7" d="M270.35,41.16a.45.45,0,0,1-.31-.11l-9.82-7.93v7.42a.51.51,0,0,1-.5.5.5.5,0,0,1-.5-.5V32.07a.5.5,0,0,1,.28-.45.49.49,0,0,1,.53.06l10.64,8.6a.5.5,0,0,1-.32.88Z"/>
            <path class="cls-7" d="M279.85,41.16a.48.48,0,0,1-.32-.11l-9.82-7.93v7.42a.5.5,0,0,1-.5.5.51.51,0,0,1-.5-.5V32.07a.51.51,0,0,1,.82-.39l10.63,8.6a.48.48,0,0,1,.07.7A.48.48,0,0,1,279.85,41.16Z"/>
            <path class="cls-7" d="M289.34,41.16a.45.45,0,0,1-.31-.11l-9.82-7.93v7.42a.51.51,0,0,1-.5.5.5.5,0,0,1-.5-.5V32.07a.5.5,0,0,1,.28-.45.49.49,0,0,1,.53.06l10.64,8.6a.5.5,0,0,1-.32.88Z"/>
            <path class="cls-7" d="M298.84,41.16a.5.5,0,0,1-.32-.11l-9.82-7.93v7.42a.5.5,0,0,1-.5.5.51.51,0,0,1-.5-.5V32.07a.51.51,0,0,1,.82-.39l10.63,8.6a.49.49,0,0,1,.08.7A.51.51,0,0,1,298.84,41.16Z"/>
            <path class="cls-7" d="M308.33,41.16a.45.45,0,0,1-.31-.11l-9.82-7.93v7.42a.51.51,0,0,1-.5.5.5.5,0,0,1-.5-.5V32.07a.5.5,0,0,1,.28-.45.49.49,0,0,1,.53.06l10.64,8.6a.5.5,0,0,1-.32.88Z"/>
            <path class="cls-7" d="M364.47,41.16a.52.52,0,0,1-.39-.17l-12.75-15v14.6a.5.5,0,0,1-.5.5.51.51,0,0,1-.5-.5v-16a.51.51,0,0,1,.33-.47.5.5,0,0,1,.55.15l13.64,16.09a.51.51,0,0,1-.06.71A.54.54,0,0,1,364.47,41.16Z"/>
            <path class="cls-7" d="M374.28,41.16a.47.47,0,0,1-.42-.22l-9.72-14.7v14.3a.5.5,0,1,1-1,0v-16a.51.51,0,0,1,.36-.48.5.5,0,0,1,.56.21l10.63,16.09a.5.5,0,0,1-.14.69A.45.45,0,0,1,374.28,41.16Z"/>
            <path class="cls-4" d="M233.87,111.33a3.15,3.15,0,1,1-3.14-3.15A3.15,3.15,0,0,1,233.87,111.33Z"/>
            <rect class="cls-7" x="60.12" y="174.16" width="2" height="48"/>
            <rect class="cls-7" x="22.12" y="174.16" width="2" height="48"/>
            <rect class="cls-10" x="17.12" y="178.66" width="50.22" height="18.5"/>
            <polygon class="cls-4" points="67.33 197.16 67.33 179.66 58.1 197.16 67.33 197.16"/>
            <polygon class="cls-4" points="35.6 197.16 46.34 197.16 56.1 178.66 45.36 178.66 35.6 197.16"/>
            <polygon class="cls-4" points="22.86 178.66 17.12 189.55 17.12 197.16 23.84 197.16 33.6 178.66 22.86 178.66"/>
            <rect class="cls-7" x="14.62" y="208.17" width="55" height="2"/>
            <rect class="cls-7" x="408.11" y="174.16" width="2" height="48"/>
            <rect class="cls-7" x="370.11" y="174.16" width="2" height="48"/>
            <rect class="cls-10" x="365.11" y="178.66" width="50.22" height="18.5"/>
            <polygon class="cls-4" points="415.33 197.16 415.33 179.66 406.1 197.16 415.33 197.16"/>
            <polygon class="cls-4" points="383.6 197.16 394.34 197.16 404.1 178.66 393.36 178.66 383.6 197.16"/>
            <polygon class="cls-4" points="370.86 178.66 365.11 189.55 365.11 197.16 371.84 197.16 381.6 178.66 370.86 178.66"/>
            <rect class="cls-7" x="362.61" y="208.17" width="55" height="2"/>
            <path class="cls-4" d="M91.5,236H68.72a1.36,1.36,0,1,0,0,2.72H91.5a1.36,1.36,0,1,0,0-2.72Z"/>
            <path class="cls-4" d="M82,216.63a.74.74,0,0,0-.7-.49H78.65a.74.74,0,0,0-.7.49l-7.35,21h19Z"/>
            <polygon class="cls-5" points="76.59 220.53 75.43 223.85 84.58 223.85 83.38 220.53 76.59 220.53"/>
            <polygon class="cls-5" points="73.63 228.99 72.47 232.31 87.67 232.31 86.46 228.99 73.63 228.99"/>
            <path class="cls-6" d="M88.09,58.94a7.66,7.66,0,0,0-4.47,1.43V58.16a11.5,11.5,0,1,0-23,0v4.35a5.81,5.81,0,0,0-9.81,4.21H95.87A7.78,7.78,0,0,0,88.09,58.94Z"/>
            <path class="cls-6" d="M181,27.6a5.67,5.67,0,0,0-3.26,1V27A8.37,8.37,0,1,0,161,27V30.2a4.23,4.23,0,0,0-7.14,3.07h32.81A5.67,5.67,0,0,0,181,27.6Z"/>
        </g>
    </g>
</svg>