<svg width="24" height="24" viewBox="0 0 24 24" fill="none"
    xmlns="http://www.w3.org/2000/svg">
    <path d="M8.36364 11.0909C9.56917 11.0909 10.7253 10.612 11.5778 9.75958C12.4302 8.90714 12.9091 7.75098 12.9091 6.54545C12.9091 5.33993 12.4302 4.18377 11.5778 3.33133C10.7253 2.47889 9.56917 2 8.36364 2C7.15811 2 6.00195 2.47889 5.14951 3.33133C4.29708 4.18377 3.81818 5.33993 3.81818 6.54545C3.81818 7.75098 4.29708 8.90714 5.14951 9.75958C6.00195 10.612 7.15811 11.0909 8.36364 11.0909ZM8.36364 11.0909C10.1936 11.0909 11.7927 11.7818 12.93 12.93M8.36364 11.0909C4.72727 11.0909 2 13.8182 2 17.4545V22H8.36364M22 14.7273L19.2727 12L13.8182 17.4545M17 14.2727L19.7273 17M10.1818 18.8182C10.1821 19.4212 10.4218 19.9994 10.8484 20.4256C11.275 20.8518 11.8534 21.0912 12.4564 21.0909C13.0594 21.0907 13.6376 20.8509 14.0638 20.4243C14.49 19.9978 14.7293 19.4194 14.7291 18.8164C14.7289 18.2134 14.4891 17.6351 14.0625 17.2089C13.636 16.7827 13.0576 16.5434 12.4545 16.5436C11.8515 16.5439 11.2733 16.7837 10.8471 17.2102C10.4209 17.6368 10.1816 18.2152 10.1818 18.8182Z" stroke-width="1.81818"/>
</svg>
