<svg width="16" height="16" viewBox="0 0 16 16" fill="none"
    xmlns="http://www.w3.org/2000/svg">
    <path d="M8.00016 7.66634C7.55814 7.66634 7.13421 7.49075 6.82165 7.17819C6.50909 6.86562 6.3335 6.4417 6.3335 5.99967C6.3335 5.55765 6.50909 5.13372 6.82165 4.82116C7.13421 4.5086 7.55814 4.33301 8.00016 4.33301C8.44219 4.33301 8.86611 4.5086 9.17867 4.82116C9.49123 5.13372 9.66683 5.55765 9.66683 5.99967C9.66683 6.21854 9.62372 6.43527 9.53996 6.63748C9.4562 6.83969 9.33344 7.02342 9.17867 7.17819C9.02391 7.33295 8.84018 7.45572 8.63797 7.53947C8.43576 7.62323 8.21903 7.66634 8.00016 7.66634ZM8.00016 1.33301C6.76249 1.33301 5.5755 1.82467 4.70033 2.69984C3.82516 3.57501 3.3335 4.762 3.3335 5.99967C3.3335 9.49967 8.00016 14.6663 8.00016 14.6663C8.00016 14.6663 12.6668 9.49967 12.6668 5.99967C12.6668 4.762 12.1752 3.57501 11.3 2.69984C10.4248 1.82467 9.23784 1.33301 8.00016 1.33301Z" />
</svg>
