<svg width="24" height="24" viewBox="0 0 24 24" fill="none"
    xmlns="http://www.w3.org/2000/svg">
    <path d="M19.485 20.154L13.223 13.892C12.723 14.318 12.148 14.6477 11.498 14.881C10.848 15.1143 10.1947 15.231 9.53801 15.231C7.93668 15.231 6.58135 14.6767 5.47201 13.568C4.36268 12.4587 3.80801 11.1037 3.80801 9.50301C3.80801 7.90235 4.36201 6.54668 5.47001 5.43601C6.57868 4.32468 7.93335 3.76901 9.53401 3.76901C11.1353 3.76901 12.4913 4.32368 13.602 5.43301C14.7127 6.54235 15.268 7.89801 15.268 9.50001C15.268 10.1947 15.145 10.867 14.899 11.517C14.6523 12.167 14.329 12.723 13.929 13.185L20.191 19.446L19.484 20.154H19.485ZM9.53801 14.23C10.8647 14.23 11.985 13.7733 12.899 12.86C13.8123 11.9467 14.269 10.8263 14.269 9.49901C14.269 8.17235 13.8123 7.05235 12.899 6.13901C11.9857 5.22568 10.8657 4.76901 9.53901 4.76901C8.21235 4.76901 7.09201 5.22568 6.17801 6.13901C5.26468 7.05235 4.80801 8.17235 4.80801 9.49901C4.80801 10.8257 5.26468 11.9457 6.17801 12.859C7.09135 13.7723 8.21135 14.23 9.53801 14.23Z"/>
</svg>
