<svg width="16" height="16" viewBox="0 0 16 16" fill="none" xmlns="http://www.w3.org/2000/svg">
<path d="M5.33333 9.33301C5.14445 9.33301 4.986 9.26901 4.858 9.14101C4.73 9.01301 4.66622 8.85479 4.66667 8.66634C4.66667 8.47745 4.73067 8.31901 4.85867 8.19101C4.98667 8.06301 5.14489 7.99923 5.33333 7.99967C5.52222 7.99967 5.68067 8.06367 5.80867 8.19167C5.93667 8.31967 6.00045 8.4779 6 8.66634C6 8.85523 5.936 9.01367 5.808 9.14167C5.68 9.26967 5.52178 9.33345 5.33333 9.33301ZM8 9.33301C7.81111 9.33301 7.65267 9.26901 7.52467 9.14101C7.39667 9.01301 7.33289 8.85479 7.33333 8.66634C7.33333 8.47745 7.39734 8.31901 7.52533 8.19101C7.65333 8.06301 7.81156 7.99923 8 7.99967C8.18889 7.99967 8.34733 8.06367 8.47534 8.19167C8.60333 8.31967 8.66711 8.4779 8.66667 8.66634C8.66667 8.85523 8.60267 9.01367 8.47467 9.14167C8.34667 9.26967 8.18845 9.33345 8 9.33301ZM10.6667 9.33301C10.4778 9.33301 10.3193 9.26901 10.1913 9.14101C10.0633 9.01301 9.99956 8.85479 10 8.66634C10 8.47745 10.064 8.31901 10.192 8.19101C10.32 8.06301 10.4782 7.99923 10.6667 7.99967C10.8556 7.99967 11.014 8.06367 11.142 8.19167C11.27 8.31967 11.3338 8.4779 11.3333 8.66634C11.3333 8.85523 11.2693 9.01367 11.1413 9.14167C11.0133 9.26967 10.8551 9.33345 10.6667 9.33301ZM3.33333 14.6663C2.96667 14.6663 2.65267 14.5357 2.39133 14.2743C2.13 14.013 1.99956 13.6992 2 13.333V3.99967C2 3.63301 2.13067 3.31901 2.392 3.05767C2.65333 2.79634 2.96711 2.6659 3.33333 2.66634H4V1.33301H5.33333V2.66634H10.6667V1.33301H12V2.66634H12.6667C13.0333 2.66634 13.3473 2.79701 13.6087 3.05834C13.87 3.31967 14.0004 3.63345 14 3.99967V13.333C14 13.6997 13.8693 14.0137 13.608 14.275C13.3467 14.5363 13.0329 14.6668 12.6667 14.6663H3.33333ZM3.33333 13.333H12.6667V6.66634H3.33333V13.333Z" fill="#A0AEC0"/>
</svg>
