<svg width="24" height="24" viewBox="0 0 24 24" fill="none" xmlns="http://www.w3.org/2000/svg">
<path d="M19.4846 20.154L13.2226 13.892C12.7226 14.318 12.1476 14.6477 11.4976 14.881C10.8476 15.1144 10.1943 15.231 9.53762 15.231C7.93628 15.231 6.58095 14.6767 5.47162 13.568C4.36228 12.4587 3.80762 11.1037 3.80762 9.50304C3.80762 7.90238 4.36162 6.54671 5.46962 5.43604C6.57828 4.32471 7.93295 3.76904 9.53362 3.76904C11.135 3.76904 12.491 4.32371 13.6016 5.43304C14.7123 6.54238 15.2676 7.89804 15.2676 9.50004C15.2676 10.1947 15.1446 10.867 14.8986 11.517C14.6519 12.167 14.3286 12.723 13.9286 13.185L20.1906 19.446L19.4836 20.154H19.4846ZM9.53762 14.23C10.8643 14.23 11.9846 13.7734 12.8986 12.86C13.8119 11.9467 14.2686 10.8264 14.2686 9.49904C14.2686 8.17238 13.8119 7.05238 12.8986 6.13904C11.9853 5.22571 10.8653 4.76904 9.53862 4.76904C8.21195 4.76904 7.09162 5.22571 6.17762 6.13904C5.26428 7.05238 4.80762 8.17238 4.80762 9.49904C4.80762 10.8257 5.26428 11.9457 6.17762 12.859C7.09095 13.7724 8.21095 14.23 9.53762 14.23Z" fill="#718096"/>
</svg>
