<svg width="32" height="32" viewBox="0 0 32 32" fill="none" xmlns="http://www.w3.org/2000/svg">
<path d="M25.3333 4H6.66667C5.2 4 4 5.2 4 6.66667V25.3333C4 26.8 5.2 28 6.66667 28H25.3333C26.8 28 28 26.8 28 25.3333V6.66667C28 5.2 26.8 4 25.3333 4ZM12.6667 15.3333C12.6667 16.4 11.7333 17.3333 10.6667 17.3333H9.33333V20H7.33333V12H10.6667C11.7333 12 12.6667 12.9333 12.6667 14V15.3333ZM19.3333 18C19.3333 19.0667 18.4 20 17.3333 20H14V12H17.3333C18.4 12 19.3333 12.9333 19.3333 14V18ZM24.6667 14H22.6667V15.3333H24.6667V17.3333H22.6667V20H20.6667V12H24.6667V14ZM16 14H17.3333V18H16V14ZM9.33333 14H10.6667V15.3333H9.33333V14Z" fill="#E53E3E"/>
</svg>
