<svg width="354" height="44" viewBox="0 0 354 44" fill="none" xmlns="http://www.w3.org/2000/svg">
<rect x="0.5" y="0.5" width="43" height="43" rx="3.5" fill="#F7FAFC"/>
<rect x="0.5" y="0.5" width="43" height="43" rx="3.5" stroke="#CBD5E0"/>
<path d="M28.0201 15.164C27.2689 14.417 26.2536 13.996 25.1942 13.9923C24.1348 13.9885 23.1166 14.4023 22.3601 15.144L15.7001 21.688C15.5113 21.8739 15.2565 21.9774 14.9915 21.9759C14.7265 21.9744 14.4728 21.868 14.2861 21.68C14.1938 21.5869 14.1208 21.4766 14.0714 21.3552C14.0219 21.2339 13.9969 21.1039 13.9978 20.9729C13.9988 20.8418 14.0256 20.7123 14.0768 20.5916C14.128 20.471 14.2025 20.3617 14.2961 20.27L20.9541 13.728C22.0869 12.6161 23.6122 11.9953 25.1995 12.0002C26.7867 12.005 28.3082 12.6351 29.4341 13.754C29.9927 14.3092 30.436 14.9693 30.7384 15.6965C31.0409 16.4236 31.1966 17.2034 31.1966 17.991C31.1966 18.7785 31.0409 19.5583 30.7384 20.2854C30.436 21.0126 29.9927 21.6728 29.4341 22.228L20.7701 30.856C20.0334 31.5883 19.0369 31.9993 17.9981 31.9993C16.9594 31.9993 15.9628 31.5883 15.2261 30.856C14.8623 30.4941 14.5735 30.0639 14.3765 29.5901C14.1795 29.1162 14.078 28.6081 14.078 28.095C14.078 27.5818 14.1795 27.0737 14.3765 26.5999C14.5735 26.126 14.8623 25.6958 15.2261 25.334L23.3061 17.288C23.4938 17.1016 23.7476 16.997 24.0121 16.997C24.2766 16.997 24.5304 17.1016 24.7181 17.288C24.8108 17.3803 24.8843 17.49 24.9344 17.6108C24.9846 17.7316 25.0104 17.8612 25.0104 17.992C25.0104 18.1228 24.9846 18.2523 24.9344 18.3731C24.8843 18.4939 24.8108 18.6036 24.7181 18.696L16.6401 26.742C16.4618 26.9193 16.3203 27.1301 16.2237 27.3623C16.1271 27.5945 16.0774 27.8435 16.0774 28.095C16.0774 28.3464 16.1271 28.5954 16.2237 28.8276C16.3203 29.0598 16.4618 29.2707 16.6401 29.448C17.0012 29.808 17.4902 30.0102 18.0001 30.0102C18.51 30.0102 18.9991 29.808 19.3601 29.448L28.0201 20.82C28.3929 20.4493 28.6887 20.0087 28.8905 19.5234C29.0923 19.038 29.1963 18.5176 29.1963 17.992C29.1963 17.4663 29.0923 16.9459 28.8905 16.4606C28.6887 15.9752 28.3929 15.5346 28.0201 15.164Z" fill="#718096"/>
<rect x="52.5" y="0.5" width="43" height="43" rx="3.5" fill="#F7FAFC"/>
<rect x="52.5" y="0.5" width="43" height="43" rx="3.5" stroke="#CBD5E0"/>
<path d="M67 15V29H81V15H67ZM67 13H81C81.5304 13 82.0391 13.2107 82.4142 13.5858C82.7893 13.9609 83 14.4696 83 15V29C83 29.5304 82.7893 30.0391 82.4142 30.4142C82.0391 30.7893 81.5304 31 81 31H67C66.4696 31 65.9609 30.7893 65.5858 30.4142C65.2107 30.0391 65 29.5304 65 29V15C65 14.4696 65.2107 13.9609 65.5858 13.5858C65.9609 13.2107 66.4696 13 67 13ZM70.5 20C70.8978 20 71.2794 19.842 71.5607 19.5607C71.842 19.2794 72 18.8978 72 18.5C72 18.1022 71.842 17.7206 71.5607 17.4393C71.2794 17.158 70.8978 17 70.5 17C70.1022 17 69.7206 17.158 69.4393 17.4393C69.158 17.7206 69 18.1022 69 18.5C69 18.8978 69.158 19.2794 69.4393 19.5607C69.7206 19.842 70.1022 20 70.5 20ZM69 24L71 22L73 24L76 21L79 24V27H69V24Z" fill="#718096"/>
<rect x="104.5" y="0.5" width="43" height="43" rx="3.5" fill="#F7FAFC"/>
<rect x="104.5" y="0.5" width="43" height="43" rx="3.5" stroke="#CBD5E0"/>
<path d="M116 16.25C116 15.388 116.342 14.5614 116.952 13.9519C117.561 13.3424 118.388 13 119.25 13H132.75C133.177 13 133.599 13.0841 133.994 13.2474C134.388 13.4107 134.746 13.6501 135.048 13.9519C135.35 14.2537 135.589 14.612 135.753 15.0063C135.916 15.4006 136 15.8232 136 16.25V27.75C136 28.1768 135.916 28.5994 135.753 28.9937C135.589 29.388 135.35 29.7463 135.048 30.0481C134.746 30.3499 134.388 30.5893 133.994 30.7526C133.599 30.9159 133.177 31 132.75 31H119.25C118.388 31 117.561 30.6576 116.952 30.0481C116.342 29.4386 116 28.612 116 27.75V16.25ZM119.25 14.5C118.786 14.5 118.341 14.6844 118.013 15.0126C117.684 15.3408 117.5 15.7859 117.5 16.25V27.75C117.5 28.716 118.284 29.5 119.25 29.5H132.75C133.214 29.5 133.659 29.3156 133.987 28.9874C134.316 28.6592 134.5 28.2141 134.5 27.75V16.25C134.5 15.7859 134.316 15.3408 133.987 15.0126C133.659 14.6844 133.214 14.5 132.75 14.5H119.25ZM123 19.25V24.75C123 24.9238 123.045 25.0945 123.131 25.2455C123.218 25.3964 123.342 25.5223 123.491 25.6107C123.641 25.6991 123.811 25.747 123.985 25.7497C124.158 25.7524 124.33 25.7098 124.482 25.626L129.482 22.876C129.639 22.7897 129.77 22.6629 129.861 22.5088C129.952 22.3547 130 22.179 130 22C130 21.821 129.952 21.6453 129.861 21.4912C129.77 21.3371 129.639 21.2103 129.482 21.124L124.482 18.374C124.33 18.2902 124.158 18.2476 123.984 18.2503C123.81 18.253 123.64 18.301 123.491 18.3896C123.341 18.4781 123.217 18.6041 123.131 18.7552C123.045 18.9063 123 19.0771 123 19.251V19.25Z" fill="#718096"/>
</svg>
