<svg width="16" height="16" viewBox="0 0 16 16" fill="none" xmlns="http://www.w3.org/2000/svg">
<path d="M5.33333 9.33325C5.14445 9.33325 4.986 9.26925 4.858 9.14125C4.73 9.01325 4.66622 8.85503 4.66667 8.66659C4.66667 8.4777 4.73067 8.31925 4.85867 8.19125C4.98667 8.06325 5.14489 7.99947 5.33333 7.99992C5.52222 7.99992 5.68067 8.06392 5.80867 8.19192C5.93667 8.31992 6.00045 8.47814 6 8.66659C6 8.85547 5.936 9.01392 5.808 9.14192C5.68 9.26992 5.52178 9.3337 5.33333 9.33325ZM8 9.33325C7.81111 9.33325 7.65267 9.26925 7.52467 9.14125C7.39667 9.01325 7.33289 8.85503 7.33333 8.66659C7.33333 8.4777 7.39734 8.31925 7.52533 8.19125C7.65333 8.06325 7.81156 7.99947 8 7.99992C8.18889 7.99992 8.34733 8.06392 8.47534 8.19192C8.60333 8.31992 8.66711 8.47814 8.66667 8.66659C8.66667 8.85547 8.60267 9.01392 8.47467 9.14192C8.34667 9.26992 8.18845 9.3337 8 9.33325ZM10.6667 9.33325C10.4778 9.33325 10.3193 9.26925 10.1913 9.14125C10.0633 9.01325 9.99956 8.85503 10 8.66659C10 8.4777 10.064 8.31925 10.192 8.19125C10.32 8.06325 10.4782 7.99947 10.6667 7.99992C10.8556 7.99992 11.014 8.06392 11.142 8.19192C11.27 8.31992 11.3338 8.47814 11.3333 8.66659C11.3333 8.85547 11.2693 9.01392 11.1413 9.14192C11.0133 9.26992 10.8551 9.3337 10.6667 9.33325ZM3.33333 14.6666C2.96667 14.6666 2.65267 14.5359 2.39133 14.2746C2.13 14.0133 1.99956 13.6995 2 13.3333V3.99992C2 3.63325 2.13067 3.31925 2.392 3.05792C2.65333 2.79659 2.96711 2.66614 3.33333 2.66659H4V1.33325H5.33333V2.66659H10.6667V1.33325H12V2.66659H12.6667C13.0333 2.66659 13.3473 2.79725 13.6087 3.05859C13.87 3.31992 14.0004 3.6337 14 3.99992V13.3333C14 13.6999 13.8693 14.0139 13.608 14.2753C13.3467 14.5366 13.0329 14.667 12.6667 14.6666H3.33333ZM3.33333 13.3333H12.6667V6.66659H3.33333V13.3333Z" fill="#A0AEC0"/>
</svg>
