<svg width="16" height="16" viewBox="0 0 16 16" fill="none" xmlns="http://www.w3.org/2000/svg">
<path d="M7.99967 7.66658C7.55765 7.66658 7.13372 7.49099 6.82116 7.17843C6.5086 6.86587 6.33301 6.44195 6.33301 5.99992C6.33301 5.55789 6.5086 5.13397 6.82116 4.82141C7.13372 4.50885 7.55765 4.33325 7.99967 4.33325C8.4417 4.33325 8.86562 4.50885 9.17819 4.82141C9.49075 5.13397 9.66634 5.55789 9.66634 5.99992C9.66634 6.21879 9.62323 6.43551 9.53947 6.63772C9.45572 6.83993 9.33295 7.02367 9.17819 7.17843C9.02342 7.33319 8.83969 7.45596 8.63748 7.53972C8.43527 7.62348 8.21854 7.66658 7.99967 7.66658ZM7.99967 1.33325C6.762 1.33325 5.57501 1.82492 4.69984 2.70009C3.82467 3.57526 3.33301 4.76224 3.33301 5.99992C3.33301 9.49992 7.99967 14.6666 7.99967 14.6666C7.99967 14.6666 12.6663 9.49992 12.6663 5.99992C12.6663 4.76224 12.1747 3.57526 11.2995 2.70009C10.4243 1.82492 9.23735 1.33325 7.99967 1.33325Z" fill="#A0AEC0"/>
</svg>
